<svg id="Слой_1" data-name="Слой 1" xmlns="http://www.w3.org/2000/svg" xmlns:xlink="http://www.w3.org/1999/xlink" viewBox="0 0 980.62 216.25"><defs><style>.cls-1{fill:#fff;stroke:#000;stroke-width:2px;}.cls-1,.cls-2,.cls-3,.cls-4{stroke-miterlimit:10;}.cls-2,.cls-3,.cls-4{fill:none;stroke-width:3px;}.cls-2{stroke:url(#Безымянный_градиент_13);}.cls-3{stroke:url(#Безымянный_градиент_13-2);}.cls-4{stroke:url(#Безымянный_градиент_13-3);}.cls-5{fill:url(#Безымянный_градиент_26);}</style><linearGradient id="Безымянный_градиент_13" x1="402.01" y1="108.13" x2="405.01" y2="108.13" gradientUnits="userSpaceOnUse"><stop offset="0" stop-color="#009fda"/><stop offset="0.53" stop-color="#007ecd"/><stop offset="1" stop-color="#005dc0"/></linearGradient><linearGradient id="Безымянный_градиент_13-2" x1="414.15" y1="108.76" x2="446.5" y2="108.76" xlink:href="#Безымянный_градиент_13"/><linearGradient id="Безымянный_градиент_13-3" x1="414.17" y1="109.52" x2="492.74" y2="109.52" xlink:href="#Безымянный_градиент_13"/><linearGradient id="Безымянный_градиент_26" x1="348.35" y1="173.3" x2="349.46" y2="40.68" gradientUnits="userSpaceOnUse"><stop offset="0" stop-color="#00a2db"/><stop offset="0.25" stop-color="#009bd8"/><stop offset="0.62" stop-color="#0086cf"/><stop offset="1" stop-color="#006bc4"/></linearGradient></defs><polygon class="cls-1" points="3.13 51.97 101.83 51.97 101.83 172.31 86.28 172.31 86.28 67.52 44.37 67.52 44.37 172.31 28.82 172.31 28.82 67.52 3.13 67.52 3.13 51.97"/><path class="cls-1" d="M112.65,52h51.72a30.08,30.08,0,0,1,30.08,30.08h0a30.09,30.09,0,0,1-30.08,30.09H140.7v60.17H125.83V97.94h40.56a14.2,14.2,0,0,0,14.2-14.2h0a14.19,14.19,0,0,0-14.2-14.19H112.65Z"/><path class="cls-1" d="M243.8,52h0A36.84,36.84,0,0,0,207,88.81v46.65a36.84,36.84,0,0,0,36.84,36.85h0a36.85,36.85,0,0,0,36.85-36.85V88.81A36.84,36.84,0,0,0,243.8,52Zm22.82,77.46c0,15.09-10.22,27.33-22.82,27.33h0c-12.6,0-22.81-12.24-22.81-27.33V94.84c0-15.09,10.21-27.32,22.81-27.32h0c12.6,0,22.82,12.23,22.82,27.32Z"/><polygon class="cls-1" points="491.24 51.97 527.75 51.97 527.75 100.14 544.48 100.14 570.85 51.97 590.11 51.97 557.15 112.14 590.11 176.7 571.86 176.7 543.47 118.9 528.25 118.9 528.25 176.7 512.53 176.7 512.53 66.67 491.24 66.67 491.24 51.97"/><path class="cls-1" d="M644.37,52H627.63L592.14,176.7h17.24L620,137.15h32.45l14.7,39.55h18.26ZM624.76,121.6l9.8-32.11h4.23l9.63,32.11Z"/><path class="cls-1" d="M776.2,142.22V52H730.56l-29.91,91.77H689v33h14.7V154.9h68.45v21.8h14.2V142.22ZM759,139.69h-38l20.79-72.51H759Z"/><path class="cls-1" d="M790.28,52.08h53.51a31.13,31.13,0,0,1,31.13,31.13h0a31.12,31.12,0,0,1-31.13,31.12H819.31v62.26H803.92V99.65h42A14.69,14.69,0,0,0,860.58,85h0a14.69,14.69,0,0,0-14.69-14.69H790.28Z"/><path class="cls-1" d="M919.13,105.55h-18.2V52H884.7v126.7h34.43a36.56,36.56,0,0,0,36.56-36.56h0A36.56,36.56,0,0,0,919.13,105.55Zm21,37.36a22,22,0,0,1-22,22H900.25V120.94h17.92a22,22,0,0,1,22,22Z"/><rect class="cls-1" x="963.04" y="51.97" width="14.96" height="126.7"/><line class="cls-2" x1="403.51" x2="403.51" y2="216.25"/><path class="cls-3" d="M414.17,74.28S445,74.65,445,108.79s-30.83,34.45-30.83,34.45"/><path class="cls-4" d="M414.17,36.5h15.41V55s8.8,1.39,14.18,5.14l12.87-12.87,21.3,21.29L465.49,81a40.76,40.76,0,0,1,5.16,14.62l20.59-.07v30.17l-21-.34s-1.66,8.36-3.92,11.35l14.91,12.95-22.44,22.44L446,157.76a34.23,34.23,0,0,1-10,4.57l.31,20.2H415.44"/><path class="cls-5" d="M369.45,63.47c1.77-.57,4.89-.62,9.52,2.48a17.08,17.08,0,0,0,4.59,2.11,85.38,85.38,0,0,0,9.09,2.44V38.07c0-1.37-.54-2.83-1.91-2.83L387.19,35a2.3,2.3,0,0,1-.69-.1c-3.63-1.06-37.12-9.26-50.91,20.21a2.5,2.5,0,0,1-2,1.47c-5.29.51-23.33,3.82-18,25.12A2.53,2.53,0,0,1,315,84c-4.09,4.62-20.28,25.08-1.66,41.19a2.41,2.41,0,0,1,.72,2.53c-1.86,6.18-6.52,29.38,26.37,34.31a2.46,2.46,0,0,1,2.07,2.17c.67,5.73,4.85,22.16,31,17.59a1.9,1.9,0,0,1,.41,0h16.29a2.48,2.48,0,0,0,2.48-2.48V138.66c-16,7.55-17.58,2-17.58,2-4.71-9,17.58-8,17.58-8V101.06c-1.71-1.35-8.76-2-12.45-2.19a4.72,4.72,0,0,0-3.6,1.29,52.81,52.81,0,0,1-4.52,4.23c-1.23,1-2.38,2.17-3.52,3.31-11.46,11.43-24-8.78-24-8.78s-5.57-7,1.15-7.94,10.79,10.94,12.74,12.27,4.6,0,4.6,0l7.4-7.4c1.2-1.06,3.11-2.49,4.4-3.43,2.35-1.72,9.33-.58,9.33-.58l8.5,1.59V79.34S363,77.39,366.93,66A4,4,0,0,1,369.45,63.47Zm-18.24,68.77a1.7,1.7,0,0,0,2.32-.14c3.51-3.74,14.56-14.67,19.19-9.75S364,133.78,359.43,135.8a8.81,8.81,0,0,0-2.64,1.79l-.53.52a5.17,5.17,0,0,0-1.5,4.23c.54,5,1.07,15.88-4.57,16.33-7.31.59-2.71-7.19-2.71-7.19s3.3-7.6,2.42-11.68a1.48,1.48,0,0,0-.71-.93c-2.58-1.57-13.59-8.55-10.67-11.68C341.13,124.39,348.32,129.84,351.21,132.24Z"/></svg>